<?xml version="1.0" encoding="utf-8"?>
<!-- Generator: Adobe Illustrator 16.0.0, SVG Export Plug-In . SVG Version: 6.00 Build 0)  -->
<!DOCTYPE svg PUBLIC "-//W3C//DTD SVG 1.1//EN" "http://www.w3.org/Graphics/SVG/1.1/DTD/svg11.dtd">
<svg version="1.1" id="f4673761-b724-4a95-a095-d2125482816e"
	 xmlns="http://www.w3.org/2000/svg" xmlns:xlink="http://www.w3.org/1999/xlink" x="0px" y="0px" width="970px" height="796px"
	 viewBox="0 0 970 796" enable-background="new 0 0 970 796" xml:space="preserve">
<title>hologram</title>
<path fill="#3F3D56" d="M868,431c0,178.34-127.909,326.81-297,358.67c-0.659,0.13-1.33,0.25-2,0.369
	c-10.51,1.931-21.176,3.394-32,4.391c-0.67,0.07-1.33,0.13-2,0.18c-10.539,0.92-21.206,1.384-32,1.391c-0.67,0-1.33,0-2-0.011
	c-10.779-0.05-21.446-0.569-32-1.56c-0.67-0.05-1.33-0.12-2-0.19c-10.81-1.05-21.477-2.573-32-4.569c-0.67-0.12-1.34-0.25-2-0.381
	C264.9,756.64,138,608.64,138,431c0-201.58,163.42-365,365-365S868,229.42,868,431z"/>
<rect x="570" y="274.5" fill="#F94C26" width="2" height="296.5"/>
<rect x="570" y="147.403" fill="#F94C26" width="2" height="87.472"/>
<rect x="433" y="138.275" fill="#F94C26" width="2" height="432.726"/>
<rect x="467" y="100" fill="#F94C26" width="2" height="97.456"/>
<rect x="467" y="244" fill="#F94C26" width="2" height="296.637"/>
<path fill="#F94C26" d="M469,586.75v207.68c-0.67-0.05-1.33-0.12-2-0.19V586.75H469z"/>
<rect x="501" y="68" fill="#F94C26" width="2" height="275.346"/>
<path fill="#F94C26" d="M503,381.52V796c-0.67,0-1.33,0-2-0.011V381.52H503z"/>
<rect x="535" y="100" fill="#F94C26" width="2" height="382"/>
<rect x="535" y="523" fill="#F94C26" width="2" height="214.172"/>
<path fill="#F94C26" d="M537,782.53v11.9c-0.67,0.07-1.33,0.13-2,0.18v-12.08H537z"/>
<path fill="#F94C26" d="M571,623v166.67c-0.659,0.13-1.33,0.25-2,0.369V623H571z"/>
<path fill="#F94C26" d="M435,623v166.67c-0.67-0.12-1.34-0.25-2-0.381V623H435z"/>
<rect x="399" y="177" fill="#F94C26" width="2" height="62.409"/>
<rect x="399" y="286.276" fill="#F94C26" width="2" height="284.725"/>
<rect x="365" y="200" fill="#F94C26" width="2" height="371"/>
<rect x="331" y="230" fill="#F94C26" width="2" height="120.904"/>
<rect x="331" y="390.968" fill="#F94C26" width="2" height="180.032"/>
<rect x="297" y="262" fill="#F94C26" width="2" height="201.535"/>
<rect x="297" y="501" fill="#F94C26" width="2" height="70"/>
<rect x="263" y="292" fill="#F94C26" width="2" height="67.598"/>
<rect x="263" y="403.819" fill="#F94C26" width="2" height="167.182"/>
<rect x="229" y="308" fill="#F94C26" width="2" height="263"/>
<rect x="195" y="380" fill="#F94C26" width="2" height="86.937"/>
<rect x="195" y="506.621" fill="#F94C26" width="2" height="64.379"/>
<rect x="590.376" y="177" fill="#F94C26" width="1.036" height="377"/>
<rect x="637" y="200" fill="#F94C26" width="2" height="59.44"/>
<rect x="637" y="299.125" fill="#F94C26" width="2" height="271.875"/>
<rect x="671" y="257" fill="#F94C26" width="2" height="35"/>
<rect x="671" y="331.252" fill="#F94C26" width="2" height="173.857"/>
<rect x="671" y="540.637" fill="#F94C26" width="2" height="30.363"/>
<rect x="705" y="262" fill="#F94C26" width="2" height="309"/>
<rect x="739" y="292" fill="#F94C26" width="2" height="98.968"/>
<rect x="739" y="428.385" fill="#F94C26" width="2" height="142.615"/>
<rect x="773" y="308" fill="#F94C26" width="2" height="263"/>
<path fill="#F94C26" d="M434,624c-5.522,0-10-4.478-10-10c0-5.523,4.478-10,10-10c5.523,0,10,4.477,10,10
	C443.994,619.52,439.52,623.993,434,624z M434,606c-4.418,0-8,3.581-8,8c0,4.418,3.582,8,8,8c4.419,0,8-3.582,8-8
	C441.995,609.583,438.417,606.005,434,606z"/>
<path fill="#F94C26" d="M468,572c-5.522,0-10-4.478-10-10c0-5.523,4.478-10,10-10c5.523,0,10,4.477,10,10
	C477.994,567.52,473.52,571.993,468,572z M468,554c-4.418,0-8,3.581-8,8c0,4.418,3.582,8,8,8c4.419,0,8-3.582,8-8
	C475.995,557.583,472.417,554.005,468,554z"/>
<path fill="#F94C26" d="M571,624c-5.522,0-10-4.478-10-10c0-5.523,4.478-10,10-10c5.523,0,10,4.477,10,10
	C580.994,619.52,576.52,623.993,571,624z M571,606c-4.418,0-8,3.581-8,8c0,4.418,3.582,8,8,8c4.419,0,8-3.582,8-8
	C578.995,609.583,575.417,606.005,571,606z"/>
<path fill="#F94C26" d="M536,749c-5.522,0-10,4.477-10,10c0,5.522,4.478,10,10,10c5.523,0,10-4.478,10-10
	C545.991,753.481,541.519,749.009,536,749z M536,767c-4.418,0-8-3.582-8-8c0-4.419,3.582-8,8-8c4.419,0,8,3.581,8,8
	C543.994,763.415,540.416,766.993,536,767z"/>
<path fill="#F94C26" d="M536,511c-5.522,0-10-4.478-10-10c0-5.523,4.478-10,10-10c5.523,0,10,4.477,10,10
	C545.994,506.52,541.52,510.993,536,511z M536,493c-4.418,0-8,3.581-8,8c0,4.418,3.582,8,8,8c4.419,0,8-3.582,8-8
	C543.995,496.583,540.417,493.005,536,493z"/>
<path fill="#F94C26" d="M502,372c-5.522,0-10-4.478-10-10c0-5.523,4.478-10,10-10c5.523,0,10,4.477,10,10
	C511.994,367.52,507.52,371.993,502,372z"/>
<path fill="#F94C26" d="M570,263c-5.522,0-10-4.478-10-10c0-5.523,4.478-10,10-10c5.523,0,10,4.477,10,10
	C579.994,258.52,575.52,262.993,570,263z M570,245c-4.418,0-8,3.581-8,8c0,4.418,3.582,8,8,8c4.419,0,8-3.582,8-8
	C577.995,248.584,574.417,245.005,570,245z"/>
<path fill="#F94C26" d="M332,381c-5.522,0-10-4.478-10-10c0-5.523,4.478-10,10-10c5.523,0,10,4.477,10,10
	C341.994,376.52,337.52,380.993,332,381z M332,363c-4.418,0-8,3.581-8,8c0,4.418,3.582,8,8,8c4.419,0,8-3.582,8-8
	C339.995,366.583,336.416,363.005,332,363z"/>
<path fill="#F94C26" d="M264,390c-5.522,0-10-4.478-10-10c0-5.523,4.478-10,10-10c5.523,0,10,4.477,10,10
	C273.994,385.52,269.52,389.993,264,390z M264,372c-4.418,0-8,3.581-8,8c0,4.418,3.582,8,8,8c4.419,0,8-3.582,8-8
	C271.995,375.583,268.416,372.005,264,372z"/>
<path fill="#F94C26" d="M298,492c-5.522,0-10-4.478-10-10c0-5.523,4.478-10,10-10c5.523,0,10,4.477,10,10
	C307.994,487.52,303.52,491.993,298,492z"/>
<path fill="#F94C26" d="M571,148c-5.522,0-10-4.478-10-10c0-5.523,4.478-10,10-10c5.523,0,10,4.477,10,10
	C580.994,143.52,576.52,147.993,571,148z M571,130c-4.418,0-8,3.581-8,8c0,4.418,3.582,8,8,8c4.419,0,8-3.582,8-8
	C578.995,133.584,575.417,130.005,571,130z"/>
<path fill="#F94C26" d="M400,272c-5.522,0-10-4.478-10-10c0-5.523,4.478-10,10-10c5.523,0,10,4.477,10,10
	C409.994,267.52,405.52,271.993,400,272z M400,254c-4.418,0-8,3.581-8,8c0,4.418,3.582,8,8,8c4.419,0,8-3.582,8-8
	C407.995,257.584,404.416,254.005,400,254z"/>
<path fill="#F94C26" d="M366,201c-5.522,0-10-4.478-10-10c0-5.523,4.478-10,10-10c5.523,0,10,4.477,10,10
	C375.994,196.52,371.52,200.993,366,201z M366,183c-4.418,0-8,3.581-8,8c0,4.418,3.582,8,8,8c4.419,0,8-3.582,8-8
	C373.995,186.584,370.416,183.005,366,183z"/>
<path fill="#F94C26" d="M196,497c-5.522,0-10-4.478-10-10c0-5.523,4.478-10,10-10c5.523,0,10,4.477,10,10
	C205.994,492.52,201.52,496.993,196,497z M196,479c-4.418,0-8,3.581-8,8c0,4.418,3.582,8,8,8c4.419,0,8-3.582,8-8
	C203.995,482.583,200.416,479.005,196,479z"/>
<rect x="804" y="380" fill="#F94C26" width="2" height="86.937"/>
<rect x="804" y="506.621" fill="#F94C26" width="2" height="64.379"/>
<path fill="#F94C26" d="M805,497c-5.522,0-10-4.478-10-10c0-5.523,4.478-10,10-10c5.523,0,10,4.477,10,10
	C814.994,492.52,810.52,496.993,805,497z M805,479c-4.418,0-8,3.581-8,8c0,4.418,3.582,8,8,8c4.419,0,8-3.582,8-8
	C812.995,482.583,809.417,479.005,805,479z"/>
<path fill="#F94C26" d="M740,418c-5.522,0-10-4.478-10-10c0-5.523,4.478-10,10-10c5.523,0,10,4.477,10,10
	C749.994,413.52,745.52,417.993,740,418z M740,400c-4.418,0-8,3.581-8,8c0,4.418,3.582,8,8,8c4.419,0,8-3.582,8-8
	C747.995,403.583,744.417,400.005,740,400z"/>
<path fill="#F94C26" d="M672,533c-5.522,0-10-4.478-10-10c0-5.523,4.478-10,10-10c5.523,0,10,4.477,10,10
	C681.994,528.52,677.52,532.993,672,533z M672,515c-4.418,0-8,3.581-8,8c0,4.418,3.582,8,8,8c4.419,0,8-3.582,8-8
	C679.995,518.583,676.417,515.005,672,515z"/>
<path fill="#F94C26" d="M468,231c-5.522,0-10-4.478-10-10c0-5.523,4.478-10,10-10c5.523,0,10,4.477,10,10
	C477.994,226.52,473.52,230.993,468,231z"/>
<path fill="#F94C26" d="M672,322c-5.522,0-10-4.478-10-10c0-5.523,4.478-10,10-10c5.523,0,10,4.477,10,10
	C681.994,317.52,677.52,321.993,672,322z M672,304c-4.418,0-8,3.581-8,8c0,4.418,3.582,8,8,8c4.419,0,8-3.582,8-8
	C679.995,307.583,676.417,304.005,672,304z"/>
<path fill="#F94C26" d="M740,293c-5.522,0-10-4.478-10-10c0-5.523,4.478-10,10-10c5.523,0,10,4.477,10,10
	C749.994,288.52,745.52,292.993,740,293z"/>
<path fill="#F94C26" d="M638,288c-5.522,0-10-4.478-10-10c0-5.523,4.478-10,10-10c5.523,0,10,4.477,10,10
	C647.994,283.52,643.52,287.993,638,288z"/>
</svg>
