<?xml version="1.0" encoding="utf-8"?>
<!-- Generator: Adobe Illustrator 16.0.0, SVG Export Plug-In . SVG Version: 6.00 Build 0)  -->
<!DOCTYPE svg PUBLIC "-//W3C//DTD SVG 1.1//EN" "http://www.w3.org/Graphics/SVG/1.1/DTD/svg11.dtd">
<svg version="1.1" id="illustration" xmlns="http://www.w3.org/2000/svg" xmlns:xlink="http://www.w3.org/1999/xlink" x="0px"
	 y="0px" width="711.188px" height="669.684px" viewBox="0 0 711.188 669.684" enable-background="new 0 0 711.188 669.684"
	 xml:space="preserve">
<title>feeling_proud</title>
<polygon fill="#82788C" points="516.323,380.018 516.323,565.013 547.27,615.443 549.624,619.279 671.722,619.279 674.189,380.018 
	"/>
<polygon opacity="0.1" enable-background="new    " points="516.323,380.018 516.323,565.013 547.27,615.443 549.169,380.018 "/>
<polygon fill="#82788C" points="221.566,375.085 221.566,560.077 190.622,610.51 188.267,614.345 66.17,614.345 63.703,375.085 "/>
<polygon opacity="0.1" enable-background="new    " points="221.566,375.085 221.566,560.077 190.622,610.51 188.723,375.085 "/>
<polygon fill="#50505A" points="711.188,371.385 711.188,382.484 47.67,382.484 47.67,366.448 109.335,334.385 656.923,334.385 "/>
<polygon opacity="0.1" enable-background="new    " points="711.188,371.385 711.188,382.484 47.67,382.484 47.67,366.448 "/>
<polygon fill="#3F3D56" points="142.635,426.884 113.035,426.884 100.702,418.251 156.201,418.251 "/>
<polygon fill="#3F3D56" points="142.635,462.649 113.035,462.649 100.702,454.016 156.201,454.016 "/>
<polygon fill="#3F3D56" points="142.635,513.216 113.035,513.216 100.702,504.578 156.201,504.578 "/>
<polygon fill="#3F3D56" points="142.635,563.78 113.035,563.78 100.702,555.147 156.201,555.147 "/>
<polygon fill="#3F3D56" points="595.257,431.816 624.857,431.816 637.19,423.183 581.691,423.183 "/>
<polygon fill="#3F3D56" points="595.257,467.579 624.857,467.579 637.19,458.948 581.691,458.948 "/>
<polygon fill="#3F3D56" points="595.257,518.148 624.857,518.148 637.19,509.515 581.691,509.515 "/>
<polygon fill="#3F3D56" points="595.257,568.714 624.857,568.714 637.19,560.077 581.691,560.077 "/>
<path fill="#3F3D56" d="M614.365,120.456H337.563c-5.781,0-10.469,4.218-10.469,9.422c0,0.001,0,0.002,0,0.003v167.854
	c-0.001,5.204,4.684,9.423,10.465,9.424c0.001,0,0.002,0,0.003,0h105.078l-3.937,22.626c0,0-22.498,10.763-6.68,11.076
	c15.818,0.316,90.342,0,90.342,0s14.413,0-8.439-11.393l-3.702-22.313h104.141c5.781,0.001,10.472-4.218,10.472-9.421
	c0-0.001,0-0.002,0-0.003V129.881c0.001-5.204-4.688-9.424-10.469-9.425C614.367,120.456,614.366,120.456,614.365,120.456z"/>
<rect x="338.094" y="130.425" fill="#1E1E23" width="277.724" height="153.917"/>
<circle fill="#F2F2F2" cx="475.766" cy="125.994" r="1.583"/>
<circle fill="#F94C26" cx="475.766" cy="300.358" r="6.013"/>
<polygon fill="#3F3D56" points="481.448,357.949 481.448,361.115 311.202,361.115 311.202,358.586 311.436,357.949 315.632,346.56 
	477.971,346.56 "/>
<path fill="#3F3D56" d="M546.969,354.854c-0.313,1.326-1.48,2.725-4.126,4.048c-9.494,4.746-28.797-1.267-28.797-1.267
	s-14.873-2.531-14.873-9.18c0.417-0.283,0.853-0.545,1.304-0.772c3.991-2.111,17.225-7.322,40.69,0.221
	c1.729,0.543,3.271,1.558,4.46,2.923C546.695,351.877,547.194,353.375,546.969,354.854z"/>
<path opacity="0.1" enable-background="new    " d="M546.969,354.854c-11.62,4.452-21.979,4.785-32.606-2.598
	c-4.02-2.975-8.887-4.575-13.886-4.573c3.991-2.111,17.225-7.322,40.69,0.221c1.729,0.543,3.271,1.558,4.46,2.923
	C546.695,351.877,547.194,353.375,546.969,354.854z"/>
<ellipse fill="#F94C26" cx="532.4" cy="350.99" rx="4.114" ry="1.266"/>
<polygon opacity="0.1" fill="#F94C26" enable-background="new    " points="481.448,357.949 481.448,361.115 311.202,361.115 
	311.202,358.586 311.436,357.949 "/>
<path fill="#3C3C46" d="M94.661,0c-1.729-0.145-3.458,0.245-4.961,1.105c-1.479,1.014-2.406,2.782-3.356,4.433
	c-3.631,6.376-8.546,11.928-14.434,16.305c-4.289,3.142-9.742,7.06-9.011,12.853c0.39,1.913,1.097,3.747,2.093,5.429
	c3.957,7.984,14.754,14.156,13.688,23.271c3.935-6.581-1.326-9.835,2.604-16.416c1.872-3.135,5.124-6.672,7.947-4.704
	c0.946,0.659,1.568,1.843,2.557,2.42c2.351,1.379,4.853-1.259,6.934-3.127c7.177-6.439,17.383-4.755,26.313-2.747
	c4.217,0.947,8.848,2.19,11.34,6.224c3.274,5.298-3.113,11.021-4.729,17.011c-0.45,1.745,0.602,3.525,2.347,3.976
	c0.378,0.101,0.771,0.128,1.156,0.087c2.683-0.266,5.854-0.479,6.016-1.655c3.371,0.12,7.503-0.265,8.944-3.772
	c0.441-1.389,0.678-2.835,0.692-4.293c0.53-5.896,3.033-11.274,4.691-16.89c1.655-5.613,2.379-12.19-0.42-17.167
	c-0.998-1.655-2.233-3.156-3.665-4.455C135.533,2.511,114.656-0.023,94.661,0z"/>
<path fill="#FFB8B8" d="M82.138,74.905c0,0,3.453,28.778-9.209,31.081c-12.663,2.305,11.511,41.44,11.511,41.44l57.56,6.907
	l-13.813-46.046c0,0-9.209-3.453-3.453-26.479C130.486,58.789,82.138,74.905,82.138,74.905z"/>
<polygon fill="#FFB8B8" points="47.028,569.318 51.633,632.632 75.806,632.632 68.9,569.318 "/>
<polygon fill="#FFB8B8" points="224.303,449.6 227.756,502.552 254.233,491.038 243.872,447.299 "/>
<path fill="#2F2E41" d="M29.761,327.577c0,0,1.151,66.769,8.058,88.641c6.907,21.871,5.759,23.021,4.604,26.476
	c-1.15,3.454-2.302,1.151-2.302,6.907s-2.306,96.695,0,104.753c2.302,8.059-6.907,21.872,0,23.023c6.903,1.147,39.139,0,40.29-6.907
	c1.147-6.906-9.209-9.209-4.604-13.813c4.605-4.604,11.511-98.998,11.511-98.998l16.116-65.611l29.93-34.534h63.313l19.569,75.975
	c0,0-8.062,21.872-2.306,21.872c5.759,0,40.29,6.906,40.29-18.418c0-25.325-11.512-100.146-13.813-102.451
	c-2.303-2.303,1.147-10.357-2.303-13.813c-3.453-3.453-43.743-27.627-58.708-32.229c-14.968-4.604-35.958-10.085-35.958-10.085
	L29.761,327.577z"/>
<path fill="#2F2E41" d="M254.233,481.829c0,0-17.268-5.755-25.322,11.515c-8.06,17.267-4.604,21.871-4.604,21.871
	s26.479,9.21,31.081,4.604c2.003-2.003,8.364-2.699,14.912-2.846c9.973-0.227,12.626-14.333,3.208-17.619
	c-0.281-0.098-0.565-0.183-0.854-0.255C263.442,496.797,254.233,481.829,254.233,481.829z"/>
<circle fill="#FFB8B8" cx="108.038" cy="59.365" r="34.534"/>
<path fill="#F94C26" d="M61.386,120.375c0,0,52.962,11.512,65.933-6.906c12.971-18.418,18.375,51.801,18.375,51.801l6.484,73.673
	l-9.728,40.29c0,0-50.8,43.743-67.012,47.196c-16.211,3.453-41.07,5.756-41.07,5.756s7.565-127.773,7.565-130.079
	C41.931,199.803,61.386,120.375,61.386,120.375z"/>
<path fill="#3C3C46" d="M80.298,98.786c0,0-12.55-7.189-16.003-0.282c-3.453,6.906-35.688,24.174-39.142,24.174
	c-3.45,0,6.907,95.544,2.305,107.056c-4.604,11.514-26.478,95.544-13.813,102.451s3.454-6.907,16.116,10.36
	c12.662,17.267,74.824,17.267,78.277,10.357s-27.627-58.708-21.872-107.056c5.756-48.348,14.965-115.114,6.904-124.323
	C85.015,112.317,80.298,98.786,80.298,98.786z"/>
<path fill="#3C3C46" d="M121.852,106.561l1.604-5.518c0,0,47.896,15.878,50.194,26.235c2.306,10.36,1.151,82.885-6.903,88.641
	c-8.061,5.755-19.569,14.965-11.515,28.775c8.062,13.813,17.271,28.778,24.177,29.933c6.904,1.147,19.566,9.209,16.113,17.267
	c-3.453,8.059-44.895-6.907-44.895-6.907s-27.627-20.72-26.479-52.949C125.305,199.803,121.852,106.561,121.852,106.561z"/>
<path fill="#FFB8B8" d="M162.142,242.395l-27.628,51.802c0,0-40.289,41.44-17.267,46.045c23.021,4.605,35.686-37.984,35.686-37.984
	l29.93-42.592L162.142,242.395z"/>
<path fill="#3C3C46" d="M96.344,9.036c-1.393-0.104-2.786,0.167-4.039,0.78c-1.132,0.827-2.063,1.896-2.729,3.134
	c-3.07,4.615-7.073,8.544-11.75,11.521c-3.492,2.221-7.934,4.989-7.333,9.084c0.321,1.373,0.898,2.673,1.699,3.835
	c3.231,5.702,4.521,12.302,3.665,18.8l9.603-13.953c1.521-2.216,4.172-4.716,6.473-3.322c0.771,0.466,1.275,1.302,2.078,1.71
	c1.914,0.976,3.95-0.892,5.645-2.209c5.845-4.557,14.15-3.361,21.423-1.942c3.433,0.67,7.199,1.549,9.229,4.396
	c3.372,4.73-0.148,11.569,1.818,17.04c1.11-0.779,1.86-1.979,2.079-3.316c2.741,0.084,6.104-0.186,7.28-2.667
	c0.357-0.973,0.552-1.998,0.563-3.034c0.432-4.168,2.47-7.971,3.819-11.938c1.349-3.97,1.937-8.616-0.344-12.137
	c-0.834-1.188-1.84-2.253-2.981-3.146C129.615,10.811,112.62,9.02,96.344,9.036z"/>
<path fill="#3C3C46" d="M162.142,122.677l10.728,2.847c0,0,24.96,63.919,19.202,107.662c-5.756,43.743-9.209,34.534-9.209,34.534
	s-9.21-20.721-29.93-16.116L162.142,122.677z"/>
<path fill="#2F2E41" d="M48.623,624.263c-2.776,3.771-2.223,9.165-4.682,13.148c-2.132,3.455-6.146,5.27-8.813,8.328
	c-0.854,1.021-1.609,2.108-2.27,3.263c-2.473,4.143-4.479,9.449-2.047,13.613c1.959,3.354,6.077,4.66,9.854,5.556
	c4.771,1.128,9.731,2.027,14.563,1.168c4.83-0.861,9.551-3.818,11.271-8.412c0.339-1.155,0.741-2.29,1.206-3.4
	c2.617-5.153,10.827-5.209,13.506-10.33c1.875-3.584,0.15-7.916-1.571-11.576l-5.261-11.177c-1.746-3.709-8.824-1.576-12.514-2.465
	C57.059,620.82,52.085,619.543,48.623,624.263z"/>
<path fill="#FFB8B8" d="M10.192,265.419l48.351,74.82c0,0,29.93,37.988,39.139,20.724c9.209-17.27-32.229-46.045-32.229-46.045
	L34.365,257.36L10.192,265.419z"/>
<path fill="#3C3C46" d="M34.365,124.979l-9.212-2.302c0,0-18.418,5.756-23.021,29.93c-4.604,24.174-1.151,120.869,4.604,122.021
	c5.759,1.147,28.43-16.837,32.059-13.023c3.629,3.814-7.882-15.755-4.429-26.115C37.819,225.13,34.365,124.979,34.365,124.979z"/>
<rect x="338.094" y="182.761" fill="none" width="277.724" height="65.053"/>
<text transform="matrix(1 0 0 1 351.3181 218.3762)" fill="#F94C26" font-family="'Alegreya-Bold'" font-size="48">PORTFOLIO</text>
</svg>
